# xmcd CD database file
#
# Track frame offsets:
#	150
#	29538
#	97638
#	112938
#
# Disc length: 2403
# Revision: 1
# Processed by: cddbd v1.5.2PL0 Copyright (c) Steve Scherf et al.
# Submitted via: cddb.el 1.0 (Emacs 27.0.50)
#
DISCID=21096104
DTITLE=Detwiije - Would You Rather Be Followed By Forty Ducks For The Rest Of 
DTITLE=Your Life?
DYEAR=2005
DGENRE=
TTITLE0=Would You Rather Be Followed By Forty Ducks For The Rest Of Your Life?
TTITLE1=Misspelt Dutch Architect
TTITLE2=POP
TTITLE3=La Guerre Des Mondes
EXTD=
EXTT0=
EXTT1=
EXTT2=
EXTT3=
PLAYORDER=
